<?xml version="1.0" encoding="UTF-8"?>
<!DOCTYPE svg PUBLIC "-//W3C//DTD SVG 1.1//EN" "http://www.w3.org/Graphics/SVG/1.1/DTD/svg11.dtd">
<svg xmlns="http://www.w3.org/2000/svg" version="1.1" viewBox="0 0 81 81" stroke="none">
	<rect width="100%" height="100%" fill="#ffffff"/>
	<path d="M20,20h7v1h-7z M30,20h5v1h-5z M36,20h1v2h-1z M38,20h4v1h-4z M43,20h1v1h-1z M46,20h1v1h-1z M48,20h2v2h-2z M51,20h2v1h-2z M54,20h7v1h-7z M20,21h1v6h-1z M26,21h1v6h-1z M29,21h1v4h-1z M30,21h2v1h-2z M33,21h1v2h-1z M35,21h1v5h-1z M40,21h2v2h-2z M45,21h1v1h-1z M47,21h1v3h-1z M54,21h1v6h-1z M60,21h1v6h-1z M22,22h3v3h-3z M28,22h1v6h-1z M39,22h1v1h-1z M46,22h1v2h-1z M48,22h1v2h-1z M51,22h2v1h-2z M56,22h3v3h-3z M30,23h1v5h-1z M31,23h1v2h-1z M38,23h1v2h-1z M40,23h1v1h-1z M42,23h2v1h-2z M45,23h1v3h-1z M52,23h1v1h-1z M32,24h1v5h-1z M34,24h1v14h-1z M39,24h1v1h-1z M41,24h1v2h-1z M43,24h2v1h-2z M49,24h1v1h-1z M51,24h1v1h-1z M33,25h1v1h-1z M36,25h1v2h-1z M46,25h2v1h-2z M52,25h1v3h-1z M21,26h5v1h-5z M38,26h1v1h-1z M40,26h1v6h-1z M42,26h1v3h-1z M44,26h1v3h-1z M46,26h1v1h-1z M48,26h1v2h-1z M50,26h1v2h-1z M55,26h5v1h-5z M33,27h1v1h-1z M39,27h1v3h-1z M41,27h1v1h-1z M20,28h1v1h-1z M22,28h5v1h-5z M29,28h1v5h-1z M37,28h1v1h-1z M45,28h3v1h-3z M49,28h1v1h-1z M54,28h5v1h-5z M22,29h1v3h-1z M24,29h1v1h-1z M30,29h1v2h-1z M33,29h1v2h-1z M41,29h1v1h-1z M43,29h1v1h-1z M50,29h3v1h-3z M54,29h1v2h-1z M56,29h1v1h-1z M58,29h1v1h-1z M60,29h1v1h-1z M20,30h1v3h-1z M23,30h1v1h-1z M25,30h2v1h-2z M32,30h1v2h-1z M35,30h2v4h-2z M42,30h1v1h-1z M47,30h1v2h-1z M49,30h2v1h-2z M52,30h1v5h-1z M53,30h1v1h-1z M59,30h1v1h-1z M39,31h1v3h-1z M41,31h1v1h-1z M43,31h1v1h-1z M46,31h1v1h-1z M48,31h1v1h-1z M50,31h2v1h-2z M55,31h3v1h-3z M24,32h5v1h-5z M30,32h1v1h-1z M37,32h2v1h-2z M45,32h1v1h-1z M49,32h1v1h-1z M51,32h1v1h-1z M57,32h2v1h-2z M23,33h1v3h-1z M31,33h2v3h-2z M38,33h1v2h-1z M40,33h1v1h-1z M42,33h2v1h-2z M46,33h1v1h-1z M48,33h1v2h-1z M50,33h1v3h-1z M54,33h1v1h-1z M56,33h1v3h-1z M58,33h1v1h-1z M60,33h1v1h-1z M20,34h1v1h-1z M22,34h1v1h-1z M24,34h1v1h-1z M26,34h5v1h-5z M33,34h1v1h-1z M36,34h1v1h-1z M41,34h2v1h-2z M45,34h1v1h-1z M47,34h1v3h-1z M49,34h1v1h-1z M53,34h1v1h-1z M59,34h1v1h-1z M29,35h1v1h-1z M35,35h1v2h-1z M40,35h2v1h-2z M54,35h1v1h-1z M57,35h1v4h-1z M20,36h1v7h-1z M25,36h4v1h-4z M36,36h2v1h-2z M44,36h2v1h-2z M49,36h1v3h-1z M51,36h1v2h-1z M53,36h1v1h-1z M55,36h1v2h-1z M58,36h2v1h-2z M21,37h2v5h-2z M23,37h2v2h-2z M29,37h1v1h-1z M33,37h1v1h-1z M37,37h4v1h-4z M43,37h1v1h-1z M45,37h1v2h-1z M48,37h1v1h-1z M52,37h1v1h-1z M54,37h1v1h-1z M56,37h1v3h-1z M59,37h2v1h-2z M25,38h3v1h-3z M30,38h2v1h-2z M37,38h1v2h-1z M41,38h1v2h-1z M44,38h1v1h-1z M47,38h1v1h-1z M28,39h2v1h-2z M31,39h1v2h-1z M36,39h1v1h-1z M38,39h3v1h-3z M42,39h1v6h-1z M46,39h1v7h-1z M48,39h1v1h-1z M51,39h1v1h-1z M24,40h1v5h-1z M26,40h2v1h-2z M29,40h1v9h-1z M30,40h1v3h-1z M34,40h1v2h-1z M45,40h1v1h-1z M53,40h1v1h-1z M57,40h2v1h-2z M60,40h1v2h-1z M25,41h1v1h-1z M28,41h1v3h-1z M32,41h1v2h-1z M36,41h1v1h-1z M38,41h1v3h-1z M39,41h1v1h-1z M43,41h2v1h-2z M48,41h2v1h-2z M51,41h1v1h-1z M54,41h3v1h-3z M59,41h1v1h-1z M23,42h1v1h-1z M26,42h2v1h-2z M31,42h1v2h-1z M35,42h1v1h-1z M37,42h1v1h-1z M40,42h2v1h-2z M44,42h2v1h-2z M47,42h1v1h-1z M49,42h1v1h-1z M52,42h1v1h-1z M55,42h1v1h-1z M57,42h2v1h-2z M22,43h1v3h-1z M25,43h1v1h-1z M41,43h1v1h-1z M43,43h1v3h-1z M53,43h1v5h-1z M57,43h1v1h-1z M59,43h1v4h-1z M20,44h1v1h-1z M23,44h1v5h-1z M26,44h1v1h-1z M36,44h2v1h-2z M40,44h1v1h-1z M44,44h2v1h-2z M47,44h1v1h-1z M49,44h1v1h-1z M55,44h1v1h-1z M58,44h1v1h-1z M60,44h1v2h-1z M21,45h1v1h-1z M32,45h4v1h-4z M38,45h2v1h-2z M45,45h1v1h-1z M48,45h1v2h-1z M50,45h2v1h-2z M54,45h1v1h-1z M56,45h2v1h-2z M24,46h5v1h-5z M30,46h3v1h-3z M36,46h1v1h-1z M40,46h2v1h-2z M44,46h1v1h-1z M47,46h1v3h-1z M49,46h1v1h-1z M52,46h1v4h-1z M20,47h3v1h-3z M24,47h2v1h-2z M27,47h1v1h-1z M31,47h1v3h-1z M33,47h2v1h-2z M39,47h1v1h-1z M41,47h1v1h-1z M43,47h1v2h-1z M46,47h1v1h-1z M50,47h2v3h-2z M54,47h1v1h-1z M56,47h2v1h-2z M22,48h1v3h-1z M25,48h1v3h-1z M26,48h1v1h-1z M28,48h1v1h-1z M30,48h1v3h-1z M32,48h1v2h-1z M34,48h2v1h-2z M37,48h2v1h-2z M44,48h2v1h-2z M49,48h1v1h-1z M55,48h1v2h-1z M57,48h2v1h-2z M20,49h1v4h-1z M21,49h1v1h-1z M37,49h1v1h-1z M39,49h3v1h-3z M45,49h2v2h-2z M48,49h1v3h-1z M53,49h2v4h-2z M56,49h1v8h-1z M57,49h1v1h-1z M59,49h2v1h-2z M23,50h2v2h-2z M26,50h2v1h-2z M29,50h1v2h-1z M33,50h1v3h-1z M36,50h1v1h-1z M40,50h3v2h-3z M47,50h1v1h-1z M27,51h2v2h-2z M31,51h1v1h-1z M39,51h1v3h-1z M43,51h1v3h-1z M51,51h1v1h-1z M55,51h1v2h-1z M57,51h1v2h-1z M60,51h1v1h-1z M23,52h1v1h-1z M25,52h2v1h-2z M30,52h1v2h-1z M35,52h1v1h-1z M37,52h1v1h-1z M45,52h3v1h-3z M49,52h1v3h-1z M52,52h1v5h-1z M58,52h2v1h-2z M28,53h1v1h-1z M31,53h2v2h-2z M34,53h1v1h-1z M38,53h1v2h-1z M40,53h3v1h-3z M45,53h1v1h-1z M48,53h1v1h-1z M50,53h2v1h-2z M60,53h1v1h-1z M20,54h7v1h-7z M33,54h1v1h-1z M36,54h1v1h-1z M40,54h1v1h-1z M44,54h1v7h-1z M47,54h1v1h-1z M51,54h1v1h-1z M54,54h1v1h-1z M57,54h1v1h-1z M59,54h1v2h-1z M20,55h1v6h-1z M26,55h1v6h-1z M28,55h1v4h-1z M30,55h1v3h-1z M32,55h1v4h-1z M39,55h1v1h-1z M41,55h2v1h-2z M46,55h1v3h-1z M48,55h1v2h-1z M22,56h3v3h-3z M29,56h1v2h-1z M31,56h1v2h-1z M33,56h1v1h-1z M35,56h1v5h-1z M36,56h1v1h-1z M38,56h1v1h-1z M40,56h1v1h-1z M42,56h2v1h-2z M53,56h1v4h-1z M54,56h2v1h-2z M57,56h2v1h-2z M60,56h1v2h-1z M37,57h1v1h-1z M39,57h1v1h-1z M41,57h1v3h-1z M43,57h1v1h-1z M45,57h1v1h-1z M51,57h1v2h-1z M55,57h1v2h-1z M57,57h1v1h-1z M59,57h1v1h-1z M33,58h2v1h-2z M36,58h1v2h-1z M42,58h1v3h-1z M47,58h4v1h-4z M54,58h1v1h-1z M56,58h1v3h-1z M29,59h1v1h-1z M34,59h1v1h-1z M39,59h2v2h-2z M43,59h1v1h-1z M47,59h2v1h-2z M52,59h1v1h-1z M57,59h1v1h-1z M59,59h1v1h-1z M21,60h5v1h-5z M28,60h1v1h-1z M30,60h2v1h-2z M38,60h1v1h-1z M45,60h1v1h-1z M47,60h1v1h-1z M49,60h1v1h-1z M51,60h1v1h-1z M54,60h2v1h-2z" fill="#000000"/>
</svg>
