<?xml version="1.0" encoding="UTF-8"?>
<!DOCTYPE svg PUBLIC "-//W3C//DTD SVG 1.1//EN" "http://www.w3.org/Graphics/SVG/1.1/DTD/svg11.dtd">
<svg xmlns="http://www.w3.org/2000/svg" version="1.1" viewBox="0 0 77 77" stroke="none">
	<rect width="100%" height="100%" fill="#ffffff"/>
	<path d="M20,20h7v1h-7z M28,20h3v2h-3z M33,20h1v1h-1z M36,20h1v5h-1z M37,20h3v1h-3z M43,20h4v1h-4z M50,20h7v1h-7z M20,21h1v6h-1z M26,21h1v6h-1z M31,21h1v1h-1z M40,21h2v2h-2z M42,21h1v1h-1z M45,21h2v4h-2z M50,21h1v6h-1z M56,21h1v6h-1z M22,22h3v3h-3z M28,22h1v1h-1z M30,22h1v1h-1z M32,22h1v3h-1z M35,22h1v4h-1z M38,22h1v1h-1z M44,22h1v5h-1z M47,22h2v1h-2z M52,22h3v3h-3z M31,23h1v1h-1z M33,23h2v1h-2z M37,23h1v3h-1z M39,23h1v2h-1z M41,23h1v1h-1z M28,24h3v1h-3z M33,24h1v1h-1z M38,24h1v3h-1z M42,24h1v1h-1z M29,25h1v1h-1z M41,25h1v1h-1z M43,25h1v1h-1z M48,25h1v3h-1z M21,26h5v1h-5z M28,26h1v1h-1z M30,26h1v1h-1z M32,26h1v3h-1z M34,26h1v2h-1z M36,26h1v3h-1z M40,26h1v4h-1z M42,26h1v1h-1z M46,26h1v1h-1z M51,26h5v1h-5z M33,27h1v1h-1z M39,27h1v1h-1z M41,27h1v2h-1z M45,27h1v1h-1z M47,27h1v1h-1z M20,28h1v1h-1z M23,28h9v1h-9z M38,28h1v1h-1z M44,28h1v1h-1z M46,28h1v1h-1z M49,28h1v1h-1z M52,28h1v2h-1z M54,28h2v2h-2z M56,28h1v1h-1z M21,29h1v1h-1z M27,29h1v4h-1z M30,29h1v1h-1z M34,29h1v2h-1z M37,29h1v3h-1z M42,29h1v1h-1z M45,29h1v2h-1z M47,29h1v2h-1z M51,29h1v3h-1z M23,30h1v8h-1z M24,30h1v2h-1z M26,30h1v1h-1z M29,30h1v1h-1z M33,30h1v3h-1z M44,30h1v1h-1z M48,30h2v1h-2z M53,30h1v6h-1z M54,30h1v2h-1z M56,30h1v3h-1z M20,31h2v1h-2z M28,31h1v4h-1z M30,31h3v1h-3z M35,31h1v1h-1z M42,31h1v1h-1z M50,31h1v2h-1z M55,31h1v1h-1z M22,32h1v1h-1z M25,32h1v4h-1z M26,32h1v1h-1z M29,32h2v1h-2z M39,32h2v1h-2z M46,32h4v1h-4z M20,33h1v2h-1z M24,33h1v1h-1z M31,33h2v1h-2z M34,33h2v2h-2z M37,33h1v4h-1z M38,33h1v1h-1z M42,33h4v1h-4z M47,33h1v2h-1z M49,33h1v1h-1z M51,33h2v1h-2z M55,33h1v4h-1z M22,34h1v2h-1z M26,34h1v1h-1z M33,34h1v1h-1z M39,34h1v3h-1z M41,34h2v1h-2z M44,34h1v1h-1z M48,34h1v2h-1z M50,34h1v3h-1z M54,34h1v4h-1z M56,34h1v2h-1z M29,35h4v1h-4z M38,35h1v1h-1z M43,35h1v4h-1z M49,35h1v1h-1z M52,35h1v2h-1z M24,36h1v2h-1z M26,36h1v1h-1z M30,36h1v1h-1z M35,36h2v1h-2z M40,36h1v3h-1z M41,36h1v1h-1z M45,36h1v1h-1z M51,36h1v2h-1z M20,37h1v3h-1z M25,37h1v1h-1z M28,37h1v4h-1z M31,37h3v2h-3z M34,37h1v1h-1z M36,37h1v1h-1z M38,37h1v1h-1z M44,37h1v1h-1z M49,37h1v2h-1z M26,38h1v1h-1z M30,38h1v2h-1z M35,38h1v1h-1z M37,38h1v1h-1z M41,38h1v1h-1z M45,38h1v2h-1z M47,38h1v2h-1z M50,38h1v1h-1z M53,38h1v2h-1z M56,38h1v2h-1z M21,39h1v2h-1z M23,39h2v1h-2z M27,39h1v1h-1z M29,39h1v3h-1z M32,39h3v1h-3z M38,39h1v2h-1z M42,39h1v1h-1z M44,39h1v1h-1z M48,39h1v1h-1z M22,40h2v1h-2z M26,40h1v1h-1z M31,40h2v1h-2z M35,40h3v1h-3z M50,40h1v1h-1z M52,40h1v2h-1z M25,41h1v1h-1z M27,41h1v3h-1z M30,41h1v2h-1z M33,41h1v4h-1z M34,41h2v1h-2z M39,41h7v1h-7z M47,41h1v4h-1z M48,41h1v1h-1z M54,41h1v1h-1z M20,42h1v1h-1z M22,42h2v2h-2z M26,42h1v1h-1z M28,42h1v1h-1z M31,42h2v1h-2z M35,42h4v1h-4z M40,42h1v1h-1z M42,42h4v1h-4z M49,42h3v1h-3z M53,42h1v1h-1z M56,42h1v1h-1z M25,43h1v3h-1z M29,43h1v1h-1z M34,43h1v5h-1z M37,43h1v4h-1z M39,43h1v4h-1z M41,43h1v3h-1z M42,43h1v1h-1z M44,43h1v2h-1z M46,43h1v1h-1z M51,43h2v1h-2z M54,43h1v1h-1z M20,44h1v5h-1z M23,44h1v1h-1z M26,44h1v1h-1z M28,44h1v4h-1z M30,44h2v1h-2z M36,44h1v3h-1z M38,44h1v1h-1z M43,44h1v1h-1z M50,44h1v1h-1z M52,44h1v3h-1z M55,44h1v1h-1z M21,45h2v2h-2z M31,45h1v1h-1z M40,45h1v3h-1z M46,45h1v1h-1z M48,45h1v1h-1z M54,45h1v3h-1z M24,46h1v2h-1z M26,46h2v1h-2z M29,46h2v1h-2z M32,46h1v1h-1z M43,46h2v1h-2z M47,46h1v1h-1z M49,46h1v1h-1z M55,46h2v1h-2z M25,47h1v1h-1z M27,47h1v1h-1z M31,47h1v1h-1z M33,47h1v1h-1z M35,47h1v1h-1z M42,47h1v6h-1z M43,47h1v1h-1z M46,47h1v3h-1z M48,47h1v7h-1z M51,47h1v2h-1z M53,47h1v1h-1z M55,47h1v1h-1z M23,48h1v1h-1z M26,48h1v1h-1z M29,48h2v1h-2z M32,48h1v1h-1z M45,48h1v1h-1z M49,48h2v1h-2z M52,48h1v5h-1z M28,49h1v5h-1z M30,49h1v3h-1z M31,49h1v1h-1z M35,49h1v2h-1z M38,49h3v1h-3z M44,49h1v1h-1z M47,49h1v1h-1z M55,49h2v1h-2z M20,50h7v1h-7z M29,50h1v1h-1z M32,50h1v1h-1z M34,50h1v1h-1z M39,50h1v3h-1z M41,50h1v1h-1z M43,50h1v1h-1z M45,50h1v2h-1z M50,50h1v1h-1z M53,50h1v1h-1z M56,50h1v2h-1z M20,51h1v6h-1z M26,51h1v6h-1z M33,51h1v3h-1z M37,51h2v1h-2z M44,51h1v3h-1z M46,51h1v3h-1z M55,51h1v5h-1z M22,52h3v3h-3z M29,52h1v3h-1z M32,52h1v1h-1z M35,52h1v1h-1z M41,52h1v2h-1z M47,52h1v4h-1z M49,52h3v1h-3z M53,52h1v2h-1z M30,53h1v2h-1z M34,53h1v1h-1z M36,53h1v4h-1z M38,53h1v1h-1z M50,53h1v1h-1z M35,54h1v1h-1z M39,54h2v2h-2z M42,54h2v2h-2z M52,54h1v2h-1z M54,54h1v3h-1z M56,54h1v3h-1z M31,55h1v2h-1z M34,55h1v2h-1z M37,55h1v1h-1z M46,55h1v2h-1z M49,55h1v1h-1z M51,55h1v1h-1z M53,55h1v1h-1z M21,56h5v1h-5z M28,56h3v1h-3z M35,56h1v1h-1z M40,56h1v1h-1z M43,56h1v1h-1z M48,56h1v1h-1z" fill="#000000"/>
</svg>
